<svg width="457" height="342" viewBox="0 0 457 342" fill="none" xmlns="http://www.w3.org/2000/svg">
    <g clip-path="url(#clip0_115_231)">
        <path d="M395.602 146.133C386.269 85.044 348.004 9.99202 272.407 2.13766C272.407 2.13766 215.01 -4.84385 158.429 5.73736C124.848 12.0172 95.4027 30.7111 76.7711 57.5788C58.139 84.4466 51.9153 117.208 59.4686 148.442C64.3744 168.729 67.6895 189.725 66.7796 210.571C65.1963 246.851 66.1072 280.716 101.317 302.353C132.754 321.672 172.319 338.711 210.065 341.695C235.716 343.723 264.483 340.441 289.206 333.763C415.201 299.728 404.935 207.222 395.602 146.133Z" fill="#F4F7FA"/>
        <path d="M173.872 301.214L84.104 294.385V41.7789L173.872 35.1306V301.214Z" fill="url(#paint0_linear_115_231)"/>
        <path d="M92.7998 133.892V241.244H91.0425V268.719H173.872V133.892H92.7998Z" fill="#D8DEE8"/>
        <mask id="mask0_115_231" style="mask-type:luminance" maskUnits="userSpaceOnUse" x="91" y="47" width="83" height="243">
            <path d="M91.0425 283.344V52.834L173.872 47.2666V289.078L91.0425 283.344Z" fill="white"/>
        </mask>
        <g mask="url(#mask0_115_231)">
            <path d="M200.741 16.72C200.741 16.72 200.828 74.8313 213.859 101.507C226.89 128.183 231.793 154.154 221.987 169.361C212.181 184.567 173.872 161.363 173.872 161.363C173.872 161.363 155.796 174.116 147.625 201.405C139.453 228.694 86.3372 251.434 74.8969 243.741C63.4566 236.049 68.3596 30.1033 68.3596 30.1033L200.741 16.72Z" fill="white"/>
            <path d="M72.4453 259.4C72.4453 259.4 104.631 274.409 128.988 260.54C153.345 246.672 173.872 221.748 173.872 221.748C173.872 221.748 198.643 236.927 211.949 236.079C225.255 235.231 235.099 192.537 235.099 192.537C235.099 192.537 257.125 181.591 266.931 159.381C276.737 137.171 306.837 112.984 323.315 107.917C339.794 102.85 349.465 112.309 349.465 112.309L345.379 305.898L91.0425 319.217L72.4453 259.4Z" fill="white"/>
        </g>
        <path d="M235.099 286.699H339.794V49.9961H235.099V286.699Z" fill="url(#paint1_linear_115_231)"/>
        <path d="M331.305 275.885V60.645H235.099L206.229 141.923L235.099 275.885H331.305Z" fill="#D8DEE8"/>
        <mask id="mask1_115_231" style="mask-type:luminance" maskUnits="userSpaceOnUse" x="235" y="60" width="97" height="216">
            <path d="M331.305 275.885L331.305 60.645L235.099 60.645L235.099 275.885H331.305Z" fill="white"/>
        </mask>
        <g mask="url(#mask1_115_231)">
            <path d="M72.4453 259.4C72.4453 259.4 104.631 274.409 128.988 260.54C153.345 246.671 173.872 221.748 173.872 221.748C173.872 221.748 198.643 236.926 211.949 236.079C225.255 235.231 235.099 192.537 235.099 192.537C235.099 192.537 257.125 181.591 266.931 159.381C276.737 137.171 306.837 112.984 323.315 107.917C339.794 102.85 349.465 112.309 349.465 112.309L345.379 305.897L91.0425 319.216L72.4453 259.4Z" fill="white"/>
            <path d="M217.395 23.947C217.395 23.947 208.717 63.7644 217.395 74.3185C226.073 84.8726 232.686 115.079 235.099 123.265C237.513 131.451 256.308 149.369 266.114 133.055C275.92 116.742 290.629 104.843 297.983 99.3523C305.338 93.8615 351.916 88.2228 354.368 84.0962C356.819 79.9697 358.454 33.1461 358.454 33.1461L217.395 23.947Z" fill="white"/>
        </g>
        <path d="M235.099 286.699L173.872 301.214V35.1306L235.099 49.9962V60.6451L223.638 83.3945L220.136 271.386L235.099 275.885V286.699Z" fill="url(#paint2_linear_115_231)"/>
        <path d="M235.099 239.828V63.4097L213.54 56.0295L202.846 53.6674L201.001 53.4504V161.084H173.872V239.828H235.099Z" fill="#97A6B7"/>
        <mask id="mask2_115_231" style="mask-type:luminance" maskUnits="userSpaceOnUse" x="173" y="47" width="63" height="243">
            <path d="M173.872 289.078V47.2666L235.099 60.6451V275.903L173.872 289.078Z" fill="white"/>
        </mask>
        <g mask="url(#mask2_115_231)">
            <path d="M200.74 16.72C200.74 16.72 200.827 74.8313 213.858 101.507C226.89 128.183 231.793 154.154 221.986 169.361C212.181 184.567 173.872 161.363 173.872 161.363C173.872 161.363 155.796 174.116 147.624 201.405C139.453 228.694 86.3369 251.434 74.8967 243.741C63.4564 236.049 68.3594 30.1033 68.3594 30.1033L200.74 16.72Z" fill="#D8DEE8"/>
            <path d="M72.4451 259.4C72.4451 259.4 104.631 274.409 128.988 260.54C153.345 246.672 173.871 221.748 173.871 221.748C173.871 221.748 198.642 236.927 211.949 236.079C225.255 235.231 235.099 192.537 235.099 192.537C235.099 192.537 257.125 181.591 266.931 159.381C276.737 137.171 306.836 112.984 323.315 107.917C339.794 102.85 349.464 112.309 349.464 112.309L345.378 305.898L91.0423 319.217L72.4451 259.4Z" fill="#D8DEE8"/>
            <path d="M217.394 23.9473C217.394 23.9473 208.717 63.7647 217.394 74.3188C226.072 84.8729 232.685 115.079 235.099 123.265C237.513 131.451 256.307 149.369 266.113 133.056C275.919 116.742 290.628 104.843 297.983 99.3525C305.337 93.8617 351.916 88.223 354.367 84.0965C356.819 79.9699 358.453 33.1464 358.453 33.1464L217.394 23.9473Z" fill="#D8DEE8"/>
        </g>
        <path opacity="0.53" d="M284.02 60.6453H282.385V286.699H284.02V60.6453Z" fill="url(#paint3_linear_115_231)"/>
        <path opacity="0.53" d="M133.274 50.0503H131.64V286.699H133.274V50.0503Z" fill="url(#paint4_linear_115_231)"/>
        <path opacity="0.53" d="M331.305 136.296H235.003L234.91 136.274L173.81 121.752L91.1113 128.737L90.9736 127.108L173.933 120.102L174.061 120.132L235.195 134.662H331.305V136.296Z" fill="url(#paint5_linear_115_231)"/>
        <path d="M109.197 177.763C108.616 177.763 108.042 177.498 107.67 176.995C107.045 176.152 107.222 174.963 108.065 174.338C108.069 174.335 108.798 173.794 110.076 172.829C110.913 172.198 112.104 172.363 112.737 173.201C113.369 174.038 113.202 175.23 112.365 175.862C111.067 176.842 110.327 177.39 110.327 177.39C109.987 177.642 109.59 177.763 109.197 177.763Z" fill="url(#paint6_linear_115_231)"/>
        <path d="M271.855 185.17C270.728 185.17 269.437 185.009 267.907 184.677C266.882 184.455 266.231 183.444 266.452 182.419C266.675 181.393 267.687 180.742 268.711 180.964C270.545 181.362 272.005 181.467 272.878 181.279C273.888 181.046 274.897 181.664 275.148 182.67C275.403 183.688 274.784 184.719 273.766 184.973C273.75 184.977 273.723 184.984 273.707 184.987C273.152 185.109 272.531 185.17 271.855 185.17ZM278.062 183.404C277.352 183.404 276.671 183.004 276.346 182.32C275.895 181.373 276.298 180.239 277.245 179.789C278.61 179.14 279.929 178.322 281.167 177.358C281.995 176.713 283.188 176.861 283.833 177.689C284.478 178.516 284.33 179.71 283.502 180.355C282.047 181.488 280.491 182.452 278.877 183.22C278.613 183.345 278.335 183.404 278.062 183.404ZM263.458 183.339C263.257 183.339 263.052 183.306 262.85 183.238C261.375 182.74 259.75 182.136 258.02 181.442C257.046 181.052 256.573 179.946 256.964 178.972C257.355 177.999 258.46 177.526 259.434 177.916C261.098 178.583 262.657 179.163 264.066 179.639C265.059 179.975 265.593 181.052 265.258 182.046C264.99 182.839 264.251 183.339 263.458 183.339ZM254.074 179.614C253.818 179.614 253.558 179.562 253.308 179.452C251.838 178.803 250.279 178.09 248.675 177.334C247.726 176.887 247.319 175.756 247.766 174.806C248.213 173.857 249.344 173.45 250.294 173.898C251.87 174.64 253.401 175.34 254.843 175.977C255.803 176.401 256.237 177.522 255.813 178.482C255.5 179.192 254.804 179.614 254.074 179.614ZM285.982 177.291C285.538 177.291 285.092 177.137 284.732 176.821C283.943 176.13 283.863 174.93 284.554 174.14C285.564 172.988 286.51 171.708 287.367 170.337C287.923 169.448 289.096 169.178 289.985 169.734C290.874 170.29 291.144 171.462 290.588 172.352C289.624 173.895 288.555 175.338 287.412 176.643C287.037 177.072 286.511 177.291 285.982 177.291ZM244.937 175.321C244.654 175.321 244.368 175.258 244.098 175.125C242.635 174.403 241.11 173.635 239.563 172.844C238.63 172.365 238.26 171.221 238.738 170.287C239.216 169.354 240.361 168.983 241.295 169.462C242.825 170.245 244.334 171.004 245.779 171.718C246.72 172.183 247.106 173.322 246.642 174.262C246.311 174.932 245.637 175.321 244.937 175.321ZM115.228 173.191C114.658 173.191 114.095 172.936 113.721 172.449C113.081 171.618 113.237 170.425 114.069 169.786C115.265 168.865 116.602 167.83 118.043 166.703C118.87 166.057 120.063 166.203 120.71 167.029C121.356 167.856 121.21 169.049 120.384 169.696C118.934 170.83 117.588 171.871 116.385 172.797C116.04 173.062 115.632 173.191 115.228 173.191ZM235.949 170.724C235.65 170.724 235.347 170.654 235.064 170.505C233.575 169.72 232.083 168.922 230.594 168.117C229.672 167.618 229.328 166.466 229.827 165.543C230.326 164.62 231.478 164.277 232.401 164.775C233.878 165.574 235.359 166.365 236.836 167.144C237.764 167.633 238.12 168.782 237.63 169.71C237.29 170.355 236.631 170.724 235.949 170.724ZM123.175 166.976C122.616 166.976 122.062 166.73 121.687 166.259C121.034 165.438 121.17 164.243 121.991 163.59C123.257 162.582 124.57 161.529 125.91 160.443C126.725 159.783 127.921 159.908 128.582 160.723C129.242 161.538 129.117 162.734 128.302 163.395C126.952 164.488 125.631 165.548 124.356 166.562C124.007 166.841 123.589 166.976 123.175 166.976ZM227.069 165.926C226.759 165.926 226.444 165.85 226.152 165.689C224.664 164.866 223.188 164.042 221.731 163.222C220.817 162.707 220.493 161.548 221.008 160.634C221.522 159.72 222.682 159.397 223.595 159.911C225.044 160.727 226.511 161.546 227.99 162.364C228.908 162.871 229.241 164.027 228.734 164.945C228.387 165.572 227.739 165.926 227.069 165.926ZM218.272 160.972C217.952 160.972 217.627 160.891 217.329 160.72C215.835 159.863 214.371 159.017 212.947 158.187C212.041 157.658 211.734 156.495 212.262 155.589C212.791 154.682 213.955 154.376 214.86 154.904C216.276 155.73 217.733 156.572 219.219 157.425C220.129 157.947 220.444 159.108 219.922 160.018C219.571 160.63 218.931 160.972 218.272 160.972ZM131.01 160.624C130.463 160.624 129.921 160.389 129.545 159.935C128.876 159.127 128.99 157.93 129.798 157.261C131.118 156.169 132.413 155.085 133.647 154.039C134.447 153.36 135.645 153.459 136.324 154.259C137.003 155.059 136.904 156.258 136.104 156.936C134.858 157.992 133.552 159.086 132.22 160.188C131.866 160.481 131.436 160.624 131.01 160.624ZM209.549 155.887C209.22 155.887 208.886 155.801 208.582 155.621C207.064 154.721 205.61 153.851 204.235 153.022C203.337 152.48 203.048 151.313 203.59 150.414C204.132 149.516 205.3 149.228 206.198 149.769C207.564 150.593 209.009 151.458 210.519 152.353C211.422 152.888 211.72 154.053 211.185 154.955C210.83 155.554 210.198 155.887 209.549 155.887ZM138.699 154.099C138.17 154.099 137.643 153.879 137.267 153.449C136.577 152.659 136.659 151.459 137.449 150.769C138.759 149.625 140.018 148.505 141.192 147.442C141.969 146.738 143.17 146.796 143.875 147.574C144.579 148.351 144.52 149.552 143.743 150.257C142.552 151.336 141.275 152.471 139.948 153.63C139.588 153.945 139.142 154.099 138.699 154.099ZM200.903 150.668C200.563 150.668 200.219 150.577 199.909 150.386C198.332 149.416 196.882 148.511 195.601 147.697C194.715 147.135 194.453 145.962 195.015 145.076C195.577 144.19 196.75 143.928 197.636 144.49C198.903 145.294 200.338 146.189 201.9 147.151C202.793 147.701 203.072 148.871 202.522 149.764C202.163 150.347 201.54 150.668 200.903 150.668ZM146.165 147.319C145.663 147.319 145.162 147.122 144.789 146.729C144.065 145.97 144.094 144.767 144.854 144.044C146.137 142.822 147.329 141.648 148.399 140.553C149.131 139.802 150.335 139.789 151.085 140.522C151.835 141.255 151.849 142.458 151.116 143.208C150.015 144.335 148.79 145.542 147.474 146.795C147.107 147.145 146.635 147.319 146.165 147.319ZM192.392 145.227C192.026 145.227 191.655 145.121 191.328 144.9C190.52 144.352 189.695 143.786 188.856 143.21C188.297 142.827 187.732 142.439 187.162 142.05C186.295 141.459 186.072 140.277 186.663 139.41C187.254 138.544 188.436 138.321 189.303 138.912C189.876 139.303 190.444 139.692 191.005 140.078C191.838 140.649 192.656 141.21 193.459 141.754C194.327 142.342 194.555 143.523 193.967 144.392C193.599 144.934 193.001 145.227 192.392 145.227ZM153.181 140.078C152.741 140.078 152.298 139.926 151.939 139.615C151.146 138.929 151.059 137.729 151.745 136.936C152.29 136.305 152.793 135.696 153.239 135.126C153.847 134.35 154.489 133.633 155.149 132.996C155.904 132.267 157.107 132.289 157.835 133.043C158.564 133.797 158.543 135 157.788 135.729C157.255 136.245 156.731 136.83 156.231 137.467C155.747 138.086 155.204 138.744 154.618 139.421C154.243 139.855 153.714 140.078 153.181 140.078ZM184.035 139.586C183.683 139.586 183.327 139.489 183.008 139.284C181.472 138.295 180.093 137.457 178.794 136.723C177.881 136.207 177.559 135.048 178.075 134.135C178.592 133.221 179.75 132.899 180.663 133.416C182.026 134.186 183.466 135.061 185.064 136.089C185.947 136.657 186.201 137.832 185.634 138.714C185.271 139.279 184.659 139.586 184.035 139.586ZM175.235 134.691C174.978 134.691 174.718 134.639 174.469 134.529C172.9 133.837 171.403 133.308 170.021 132.955C169.004 132.696 168.39 131.662 168.649 130.646C168.908 129.629 169.941 129.015 170.959 129.274C172.544 129.678 174.241 130.277 176.002 131.053C176.962 131.477 177.397 132.598 176.974 133.558C176.66 134.268 175.965 134.691 175.235 134.691ZM160.613 133.447C159.879 133.447 159.18 133.019 158.869 132.302C158.453 131.339 158.895 130.221 159.858 129.804C161.592 129.054 163.476 128.648 165.459 128.599C166.51 128.573 167.379 129.402 167.405 130.451C167.431 131.5 166.602 132.371 165.554 132.397C164.039 132.435 162.67 132.727 161.367 133.291C161.121 133.397 160.865 133.447 160.613 133.447Z" fill="url(#paint7_linear_115_231)"/>
        <path d="M291.244 168.978C290.987 168.978 290.726 168.926 290.476 168.815C289.516 168.389 289.084 167.267 289.509 166.308C290.084 165.011 290.35 164.167 290.352 164.159C290.664 163.158 291.728 162.599 292.729 162.909C293.73 163.219 294.291 164.28 293.982 165.281C293.969 165.323 293.657 166.328 292.982 167.849C292.668 168.557 291.973 168.978 291.244 168.978Z" fill="url(#paint8_linear_115_231)"/>
        <path d="M168.259 63.0705C168.259 86.2816 135.741 128.636 121.025 146.616C117.363 151.09 110.518 151.09 106.856 146.616C92.1399 128.636 59.6226 86.2814 59.6226 63.0705C59.6226 33.0715 83.9416 8.75244 113.941 8.75244C143.94 8.75244 168.259 33.0715 168.259 63.0705Z" fill="url(#paint9_linear_115_231)"/>
        <path d="M135.36 84.4914C147.19 72.661 147.19 53.4801 135.36 41.6497C123.53 29.8193 104.349 29.8193 92.5182 41.6497C80.6878 53.4801 80.6878 72.661 92.5182 84.4914C104.349 96.3218 123.53 96.3218 135.36 84.4914Z" fill="white"/>
        <g opacity="0.3">
            <path d="M113.701 124.314C117.147 101.619 132.134 94.3547 129.561 72.9253C126.595 48.2114 104.712 41.6292 104.184 19.6337C104.099 16.0925 104.581 12.6778 105.49 9.40796C79.5048 13.4675 59.6228 35.9464 59.6228 63.0705C59.6228 86.2814 92.1401 128.636 106.856 146.616C109.011 149.249 112.27 150.331 115.333 149.864C112.699 139.924 112.619 131.435 113.701 124.314Z" fill="url(#paint10_linear_115_231)"/>
        </g>
        <path d="M113.941 184.145C120.072 184.145 125.043 179.174 125.043 173.042C125.043 166.911 120.072 161.94 113.941 161.94C107.809 161.94 102.838 166.911 102.838 173.042C102.838 179.174 107.809 184.145 113.941 184.145Z" fill="url(#paint11_linear_115_231)"/>
        <path d="M316.884 113.197C316.884 123.76 302.087 143.033 295.391 151.215C293.724 153.251 290.609 153.251 288.943 151.215C282.246 143.033 267.449 123.76 267.449 113.197C267.449 99.546 278.515 88.4795 292.167 88.4795C305.818 88.4795 316.884 99.546 316.884 113.197Z" fill="url(#paint12_linear_115_231)"/>
        <path d="M305.812 115.119C306.868 107.579 301.612 100.611 294.072 99.5552C286.532 98.4992 279.564 103.755 278.508 111.295C277.452 118.835 282.708 125.803 290.248 126.859C297.788 127.915 304.756 122.659 305.812 115.119Z" fill="white"/>
        <g opacity="0.3">
            <path d="M292.057 141.067C293.625 130.739 300.445 127.433 299.275 117.682C297.925 106.436 287.967 103.44 287.727 93.4311C287.688 91.8197 287.907 90.2657 288.321 88.7778C276.496 90.6252 267.449 100.854 267.449 113.197C267.449 123.76 282.246 143.033 288.943 151.215C289.923 152.414 291.406 152.906 292.8 152.693C291.602 148.17 291.565 144.307 292.057 141.067Z" fill="url(#paint13_linear_115_231)"/>
        </g>
        <path d="M292.167 168.293C294.957 168.293 297.219 166.031 297.219 163.241C297.219 160.45 294.957 158.188 292.167 158.188C289.376 158.188 287.114 160.45 287.114 163.241C287.114 166.031 289.376 168.293 292.167 168.293Z" fill="url(#paint14_linear_115_231)"/>
        <path d="M194.57 79.4645C185.249 92.4978 195.791 113.898 182.062 123.629C168.698 133.102 152.571 117.175 139.984 125.318C121.312 137.397 124.107 193.598 150.849 228.779C158.892 239.359 165.661 243.514 168.553 255.414C174.763 280.967 151.834 295.888 156.034 308.539C165.492 337.022 315.284 362.414 376.386 277.752C404.924 238.212 409.737 180.733 385.075 136.779C340.511 57.3563 215.484 50.2202 194.57 79.4645Z" fill="white" fill-opacity="0.05"/>
        <path d="M228.834 190.865L283.003 184.257V104.537L228.834 94.2983V190.865Z" fill="url(#paint15_linear_115_231)"/>
        <path d="M162.761 186.665L228.834 190.865V94.2983L162.761 103.401V186.665Z" fill="url(#paint16_linear_115_231)"/>
        <path d="M203.928 97.7295V111.269L181.931 113.32V100.76L203.928 97.7295Z" fill="white"/>
        <path d="M149.766 296.296L238.565 302.528V172.747L149.766 178.979V296.296Z" fill="url(#paint17_linear_115_231)"/>
        <path d="M238.565 302.528L311.365 293.647V181.032L238.565 172.747V302.528Z" fill="url(#paint18_linear_115_231)"/>
        <path d="M207.13 174.953V195.243L177.377 196.751V177.041L207.13 174.953Z" fill="white"/>
        <path d="M251.986 321.569L213.959 320.017L224.487 295.405L248.986 296.847L255.541 307.545L251.986 321.569Z" fill="url(#paint19_linear_115_231)"/>
        <path d="M287.657 282.445C287.91 282.445 288.161 282.463 288.41 282.487L292.361 282.445L292.338 283.991C296.166 286.651 298.823 292.467 298.823 299.219C298.823 306.238 295.953 312.246 291.88 314.748L291.861 315.993H287.657C281.491 315.993 276.491 308.483 276.491 299.219C276.491 289.955 281.491 282.445 287.657 282.445Z" fill="url(#paint20_linear_115_231)"/>
        <path d="M292.361 315.993C286.194 315.993 281.195 308.483 281.195 299.219C281.195 289.955 286.194 282.445 292.361 282.445C298.528 282.445 303.527 289.955 303.527 299.219C303.527 308.483 298.528 315.993 292.361 315.993Z" fill="url(#paint21_linear_115_231)"/>
        <path d="M178.546 295.183C178.856 295.183 179.163 295.202 179.468 295.23L184.308 295.183L184.28 296.914C188.97 299.894 192.225 306.41 192.225 313.975C192.225 321.838 188.708 328.57 183.719 331.373L183.696 332.767H178.546C170.991 332.767 164.866 324.354 164.866 313.975C164.866 303.596 170.991 295.183 178.546 295.183Z" fill="url(#paint22_linear_115_231)"/>
        <path d="M184.309 332.767C176.754 332.767 170.63 324.354 170.63 313.975C170.63 303.597 176.754 295.183 184.309 295.183C191.864 295.183 197.989 303.597 197.989 313.975C197.989 324.354 191.864 332.767 184.309 332.767Z" fill="url(#paint23_linear_115_231)"/>
        <path d="M230.565 303.908C230.871 303.908 231.173 303.928 231.473 303.957L236.238 303.908L236.211 305.683C240.828 308.738 244.032 315.418 244.032 323.174C244.032 331.235 240.57 338.136 235.658 341.009L235.635 342.439H230.565C223.128 342.439 217.098 333.813 217.098 323.174C217.098 312.533 223.128 303.908 230.565 303.908Z" fill="url(#paint24_linear_115_231)"/>
        <path d="M236.239 342.439C228.801 342.439 222.772 333.813 222.772 323.173C222.772 312.534 228.801 303.908 236.239 303.908C243.676 303.908 249.706 312.534 249.706 323.173C249.706 333.813 243.676 342.439 236.239 342.439Z" fill="url(#paint25_linear_115_231)"/>
        <path d="M238.131 333.997C233.953 333.997 230.566 329.151 230.566 323.174C230.566 317.196 233.953 312.35 238.131 312.35C242.31 312.35 245.697 317.196 245.697 323.174C245.697 329.151 242.31 333.997 238.131 333.997Z" fill="#D8DEE8"/>
        <path d="M236.986 333.222C233.44 333.222 230.565 328.723 230.565 323.174C230.565 317.624 233.44 313.125 236.986 313.125C240.532 313.125 243.407 317.624 243.407 323.174C243.407 328.723 240.532 333.222 236.986 333.222Z" fill="url(#paint26_linear_115_231)"/>
        <path d="M364.868 282.445V302.499C364.868 307.734 360.276 311.788 355.069 311.149L306.205 305.161V282.445L364.868 282.445Z" fill="url(#paint27_linear_115_231)"/>
        <path d="M342.869 279.662L329.454 300.466C327.536 303.44 324.389 305.405 320.87 305.827L276.492 311.148L273.096 288.753L342.869 279.662Z" fill="url(#paint28_linear_115_231)"/>
        <path d="M339.776 289.795C340.029 289.795 340.28 289.813 340.529 289.838L344.48 289.795L344.457 291.341C348.285 294.001 350.942 299.817 350.942 306.569C350.942 313.588 348.071 319.596 343.998 322.098L343.98 323.343H339.776C333.609 323.343 328.61 315.833 328.61 306.569C328.61 297.305 333.609 289.795 339.776 289.795Z" fill="url(#paint29_linear_115_231)"/>
        <path d="M344.48 323.343C338.313 323.343 333.314 315.833 333.314 306.569C333.314 297.305 338.313 289.795 344.48 289.795C350.646 289.795 355.646 297.305 355.646 306.569C355.646 315.833 350.646 323.343 344.48 323.343Z" fill="url(#paint30_linear_115_231)"/>
        <path d="M346.049 315.993C342.584 315.993 339.775 311.774 339.775 306.569C339.775 301.365 342.584 297.146 346.049 297.146C349.513 297.146 352.322 301.365 352.322 306.569C352.322 311.774 349.513 315.993 346.049 315.993Z" fill="#D8DEE8"/>
        <path d="M345.099 315.318C342.159 315.318 339.775 311.401 339.775 306.569C339.775 301.738 342.159 297.821 345.099 297.821C348.04 297.821 350.423 301.738 350.423 306.569C350.423 311.401 348.04 315.318 345.099 315.318Z" fill="url(#paint31_linear_115_231)"/>
        <path d="M291.316 295.405L382.471 282.807C383.971 282.6 385.088 281.32 385.088 279.809V199.668C385.088 198.032 383.787 196.693 382.149 196.642L291.316 193.85V295.405H291.316Z" fill="url(#paint32_linear_115_231)"/>
        <path d="M219.765 289.795L291.316 295.404V193.85L223.319 197.432C221.327 197.537 219.765 199.18 219.765 201.171V289.795Z" fill="url(#paint33_linear_115_231)"/>
        <path opacity="0.3" d="M324.203 232.732C337.453 216.066 363.793 228.364 377.089 209.671C380.086 205.458 382.172 201.16 383.621 197.09C384.498 197.621 385.088 198.573 385.088 199.668V279.809C385.088 281.32 383.972 282.6 382.471 282.807L299.98 294.208C305.188 288.529 310.418 281.271 314.204 272.201C322.517 252.285 315.552 243.614 324.203 232.732Z" fill="url(#paint34_linear_115_231)"/>
        <path d="M277.486 235.872C279.954 246.93 285.713 278.825 279.287 313.103C278.808 315.654 276.756 317.623 274.188 318.032L251.985 321.569C251.985 321.569 251.763 300.595 241.097 299.219C230.431 297.844 220.431 307.822 219.765 325.117C219.765 325.117 196.655 328.221 161.768 320.239C161.768 320.239 157.102 319.241 155.102 313.975L156.677 289.851C156.807 287.872 157.727 286.026 159.231 284.729L179.767 267.023C179.767 267.023 198.433 240.636 204.655 235.536C204.655 235.536 207.988 230.215 234.875 229.549C253.392 229.091 266.143 230.316 272.286 231.123C274.851 231.46 276.924 233.353 277.486 235.872Z" fill="url(#paint35_linear_115_231)"/>
        <path opacity="0.6" d="M157.859 286.308L158.879 287.422C158.435 299.839 155.738 304.229 178.546 306.569C201.353 308.91 200.655 289.795 200.655 289.795L230.565 276.779L255.54 237.532C260.497 233.547 269.159 232.458 275.033 232.206C276.25 233.066 277.146 234.351 277.486 235.872C279.954 246.93 285.713 278.825 279.287 313.103C278.808 315.654 276.756 317.623 274.187 318.032L251.985 321.569C251.985 321.569 251.763 300.595 241.097 299.219C230.431 297.843 220.431 307.822 219.764 325.117C219.764 325.117 196.655 328.221 161.768 320.239C161.768 320.239 157.101 319.241 155.102 313.975L156.677 289.851C156.761 288.577 157.176 287.361 157.859 286.308Z" fill="url(#paint36_linear_115_231)"/>
        <path d="M230.871 271.053C230.062 272.379 228.55 273.11 227.006 272.921L179.645 267.128L179.767 267.023C179.767 267.023 195.257 245.126 202.719 237.372L246.391 239.994C247.895 240.084 248.762 241.739 247.978 243.023L230.871 271.053Z" fill="url(#paint37_linear_115_231)"/>
        <path opacity="0.3" d="M202.67 256.337C215.565 251.278 226.281 257.274 235.149 250.199C238.561 247.478 240.593 243.699 241.793 239.718L246.39 239.994C247.895 240.084 248.762 241.739 247.978 243.023L230.871 271.054C230.062 272.379 228.55 273.11 227.006 272.921L187.706 268.114C192.868 261.421 198.18 258.098 202.67 256.337Z" fill="white"/>
        <path d="M160.815 289.507C160.864 289.077 161.225 288.752 161.659 288.756C173.461 288.859 188.301 291.336 193.214 292.216C194.14 292.382 194.75 293.284 194.535 294.197C193.575 298.289 191.982 301.056 190.808 302.661C190.011 303.753 188.784 304.442 187.434 304.548C183.721 304.839 175.484 305.333 171.49 304.385C167.938 303.541 164.538 301.859 162.711 300.86C161.648 300.278 160.896 299.247 160.711 298.051C160.262 295.161 160.628 291.156 160.815 289.507Z" fill="url(#paint38_linear_115_231)"/>
        <path d="M218.563 290.644C218.895 289.972 218.576 289.162 217.871 288.902C216.829 288.517 215.4 288.073 214.571 288.171C213.483 288.298 204.282 290.683 200.074 291.782C198.775 292.121 197.878 293.324 197.965 294.661C198.153 297.52 199.235 302.048 204.155 302.556C210.984 303.261 215.299 297.251 218.563 290.644Z" fill="url(#paint39_linear_115_231)"/>
        <path d="M174.323 307.544C192.226 310.039 195.858 303.908 195.858 303.908C200.095 304.537 206.117 303.709 209.529 303.116C210.83 302.89 212.092 303.506 212.82 304.605C213.364 305.427 214.354 306.259 216.154 306.569C219.092 307.074 224.095 305.958 226.545 305.33C222.979 310.214 220.483 316.545 220.153 325.09C220.153 325.09 196.655 328.221 161.768 320.239C161.768 320.239 157.102 319.241 155.102 313.974L156.13 298.243C157.958 301.034 162.74 305.93 174.323 307.544Z" fill="url(#paint40_linear_115_231)"/>
        <path opacity="0.6" d="M203.44 310.647C205.421 310.456 207.11 312.039 207.066 314.025C206.973 318.268 207.407 322.71 207.791 325.709C197.655 325.733 181.623 324.782 161.768 320.239C161.768 320.239 157.102 319.241 155.102 313.975L155.701 304.806C170.004 312.899 194.084 311.553 203.44 310.647Z" fill="url(#paint41_linear_115_231)"/>
        <path d="M269.849 242.285L263.417 243.838C261.314 244.346 259.474 245.612 258.251 247.393L242.328 270.57C241.241 272.152 242.645 274.247 244.525 273.85L272.115 268.026C273.227 267.792 274.039 266.841 274.088 265.709C274.26 261.737 274.445 252.323 272.885 244.25C272.615 242.849 271.239 241.95 269.849 242.285Z" fill="url(#paint42_linear_115_231)"/>
    </g>
    <defs>
        <linearGradient id="paint0_linear_115_231" x1="84.104" y1="168.172" x2="173.872" y2="168.172" gradientUnits="userSpaceOnUse">
            <stop stop-color="#FF9085"/>
            <stop offset="1" stop-color="#FB6FBB"/>
        </linearGradient>
        <linearGradient id="paint1_linear_115_231" x1="263.655" y1="107.066" x2="367.673" y2="374.992" gradientUnits="userSpaceOnUse">
            <stop stop-color="#FF9085"/>
            <stop offset="1" stop-color="#FB6FBB"/>
        </linearGradient>
        <linearGradient id="paint2_linear_115_231" x1="148.782" y1="168.02" x2="262.446" y2="168.709" gradientUnits="userSpaceOnUse">
            <stop stop-color="#FF9085"/>
            <stop offset="1" stop-color="#FB6FBB"/>
        </linearGradient>
        <linearGradient id="paint3_linear_115_231" x1="282.385" y1="173.672" x2="284.02" y2="173.672" gradientUnits="userSpaceOnUse">
            <stop stop-color="#311944"/>
            <stop offset="1" stop-color="#A03976"/>
        </linearGradient>
        <linearGradient id="paint4_linear_115_231" x1="131.64" y1="168.375" x2="133.274" y2="168.375" gradientUnits="userSpaceOnUse">
            <stop stop-color="#311944"/>
            <stop offset="1" stop-color="#A03976"/>
        </linearGradient>
        <linearGradient id="paint5_linear_115_231" x1="90.9736" y1="128.199" x2="331.305" y2="128.199" gradientUnits="userSpaceOnUse">
            <stop stop-color="#311944"/>
            <stop offset="1" stop-color="#A03976"/>
        </linearGradient>
        <linearGradient id="paint6_linear_115_231" x1="107.296" y1="175.105" x2="294.074" y2="175.105" gradientUnits="userSpaceOnUse">
            <stop stop-color="#AA80F9"/>
            <stop offset="0.9964" stop-color="#6165D7"/>
        </linearGradient>
        <linearGradient id="paint7_linear_115_231" x1="107.335" y1="156.884" x2="292.893" y2="156.884" gradientUnits="userSpaceOnUse">
            <stop stop-color="#AA80F9"/>
            <stop offset="0.9964" stop-color="#6165D7"/>
        </linearGradient>
        <linearGradient id="paint8_linear_115_231" x1="107.261" y1="165.901" x2="294.067" y2="165.901" gradientUnits="userSpaceOnUse">
            <stop stop-color="#AA80F9"/>
            <stop offset="0.9964" stop-color="#6165D7"/>
        </linearGradient>
        <linearGradient id="paint9_linear_115_231" x1="168.259" y1="79.362" x2="59.6226" y2="79.362" gradientUnits="userSpaceOnUse">
            <stop stop-color="#FFC444"/>
            <stop offset="0.9964" stop-color="#F36F56"/>
        </linearGradient>
        <linearGradient id="paint10_linear_115_231" x1="129.857" y1="79.6888" x2="59.6228" y2="79.6888" gradientUnits="userSpaceOnUse">
            <stop stop-color="#FFC444"/>
            <stop offset="0.9964" stop-color="#F36F56"/>
        </linearGradient>
        <linearGradient id="paint11_linear_115_231" x1="125.043" y1="173.042" x2="102.838" y2="173.042" gradientUnits="userSpaceOnUse">
            <stop stop-color="#FFC444"/>
            <stop offset="0.9964" stop-color="#F36F56"/>
        </linearGradient>
        <linearGradient id="paint12_linear_115_231" x1="288.978" y1="104.223" x2="313.87" y2="168.341" gradientUnits="userSpaceOnUse">
            <stop stop-color="#FF9085"/>
            <stop offset="1" stop-color="#FB6FBB"/>
        </linearGradient>
        <linearGradient id="paint13_linear_115_231" x1="280.065" y1="107.684" x2="304.957" y2="171.801" gradientUnits="userSpaceOnUse">
            <stop stop-color="#FF9085"/>
            <stop offset="1" stop-color="#FB6FBB"/>
        </linearGradient>
        <linearGradient id="paint14_linear_115_231" x1="298.645" y1="153.407" x2="282.478" y2="177.946" gradientUnits="userSpaceOnUse">
            <stop stop-color="#FF9085"/>
            <stop offset="1" stop-color="#FB6FBB"/>
        </linearGradient>
        <linearGradient id="paint15_linear_115_231" x1="237.856" y1="103.351" x2="304.429" y2="195.725" gradientUnits="userSpaceOnUse">
            <stop stop-color="#D9B79F"/>
            <stop offset="0.9964" stop-color="#C09779"/>
        </linearGradient>
        <linearGradient id="paint16_linear_115_231" x1="173.765" y1="103.351" x2="235.233" y2="207.386" gradientUnits="userSpaceOnUse">
            <stop stop-color="#D9B79F"/>
            <stop offset="0.9964" stop-color="#C09779"/>
        </linearGradient>
        <linearGradient id="paint17_linear_115_231" x1="164.555" y1="184.914" x2="247.164" y2="324.731" gradientUnits="userSpaceOnUse">
            <stop stop-color="#D9B79F"/>
            <stop offset="0.9964" stop-color="#C09779"/>
        </linearGradient>
        <linearGradient id="paint18_linear_115_231" x1="250.689" y1="184.914" x2="340.16" y2="309.06" gradientUnits="userSpaceOnUse">
            <stop stop-color="#D9B79F"/>
            <stop offset="0.9964" stop-color="#C09779"/>
        </linearGradient>
        <linearGradient id="paint19_linear_115_231" x1="255.541" y1="308.487" x2="213.959" y2="308.487" gradientUnits="userSpaceOnUse">
            <stop stop-color="#A2B1BA"/>
            <stop offset="0.9964" stop-color="#58717D"/>
        </linearGradient>
        <linearGradient id="paint20_linear_115_231" x1="298.823" y1="299.219" x2="276.491" y2="299.219" gradientUnits="userSpaceOnUse">
            <stop stop-color="#263238"/>
            <stop offset="1" stop-color="#35444C"/>
        </linearGradient>
        <linearGradient id="paint21_linear_115_231" x1="303.527" y1="299.219" x2="281.195" y2="299.219" gradientUnits="userSpaceOnUse">
            <stop stop-color="#263238"/>
            <stop offset="1" stop-color="#35444C"/>
        </linearGradient>
        <linearGradient id="paint22_linear_115_231" x1="192.225" y1="313.975" x2="164.866" y2="313.975" gradientUnits="userSpaceOnUse">
            <stop stop-color="#263238"/>
            <stop offset="1" stop-color="#37464E"/>
        </linearGradient>
        <linearGradient id="paint23_linear_115_231" x1="197.989" y1="313.975" x2="170.629" y2="313.975" gradientUnits="userSpaceOnUse">
            <stop stop-color="#263238"/>
            <stop offset="1" stop-color="#36454D"/>
        </linearGradient>
        <linearGradient id="paint24_linear_115_231" x1="244.032" y1="323.173" x2="217.098" y2="323.173" gradientUnits="userSpaceOnUse">
            <stop stop-color="#263238"/>
            <stop offset="1" stop-color="#34444B"/>
        </linearGradient>
        <linearGradient id="paint25_linear_115_231" x1="249.706" y1="323.173" x2="222.772" y2="323.173" gradientUnits="userSpaceOnUse">
            <stop stop-color="#263238"/>
            <stop offset="1" stop-color="#36454D"/>
        </linearGradient>
        <linearGradient id="paint26_linear_115_231" x1="227.833" y1="322.186" x2="240.165" y2="323.522" gradientUnits="userSpaceOnUse">
            <stop offset="0.0054" stop-color="#D8DEE8"/>
            <stop offset="1" stop-color="#F4F7FA"/>
        </linearGradient>
        <linearGradient id="paint27_linear_115_231" x1="364.868" y1="296.83" x2="306.204" y2="296.83" gradientUnits="userSpaceOnUse">
            <stop stop-color="#3E484C"/>
            <stop offset="0.9964" stop-color="#222321"/>
        </linearGradient>
        <linearGradient id="paint28_linear_115_231" x1="342.869" y1="295.405" x2="273.096" y2="295.405" gradientUnits="userSpaceOnUse">
            <stop stop-color="#3C4B53"/>
            <stop offset="0.9964" stop-color="#21211F"/>
        </linearGradient>
        <linearGradient id="paint29_linear_115_231" x1="350.942" y1="306.569" x2="328.61" y2="306.569" gradientUnits="userSpaceOnUse">
            <stop stop-color="#263238"/>
            <stop offset="1" stop-color="#35444C"/>
        </linearGradient>
        <linearGradient id="paint30_linear_115_231" x1="355.645" y1="306.569" x2="333.314" y2="306.569" gradientUnits="userSpaceOnUse">
            <stop stop-color="#263238"/>
            <stop offset="1" stop-color="#334249"/>
        </linearGradient>
        <linearGradient id="paint31_linear_115_231" x1="333.96" y1="308.066" x2="351.291" y2="305.728" gradientUnits="userSpaceOnUse">
            <stop offset="0.0054" stop-color="#D8DEE8"/>
            <stop offset="1" stop-color="#F4F7FA"/>
        </linearGradient>
        <linearGradient id="paint32_linear_115_231" x1="291.316" y1="244.627" x2="385.088" y2="244.627" gradientUnits="userSpaceOnUse">
            <stop stop-color="#FFC444"/>
            <stop offset="0.9964" stop-color="#F36F56"/>
        </linearGradient>
        <linearGradient id="paint33_linear_115_231" x1="219.765" y1="244.627" x2="291.316" y2="244.627" gradientUnits="userSpaceOnUse">
            <stop stop-color="#FFC444"/>
            <stop offset="0.9964" stop-color="#F36F56"/>
        </linearGradient>
        <linearGradient id="paint34_linear_115_231" x1="299.98" y1="245.649" x2="385.088" y2="245.649" gradientUnits="userSpaceOnUse">
            <stop stop-color="#FFC444"/>
            <stop offset="0.9964" stop-color="#EBA50A"/>
        </linearGradient>
        <linearGradient id="paint35_linear_115_231" x1="282.225" y1="277.581" x2="155.102" y2="277.581" gradientUnits="userSpaceOnUse">
            <stop offset="0.0054" stop-color="#D8DEE8"/>
            <stop offset="1" stop-color="#F4F7FA"/>
        </linearGradient>
        <linearGradient id="paint36_linear_115_231" x1="219.487" y1="279.848" x2="277.971" y2="372.645" gradientUnits="userSpaceOnUse">
            <stop offset="0.0054" stop-color="#D8DEE8"/>
            <stop offset="1" stop-color="#F4F7FA"/>
        </linearGradient>
        <linearGradient id="paint37_linear_115_231" x1="248.272" y1="255.161" x2="179.645" y2="255.161" gradientUnits="userSpaceOnUse">
            <stop stop-color="#3C4F58"/>
            <stop offset="0.9964" stop-color="#2C3A41"/>
        </linearGradient>
        <linearGradient id="paint38_linear_115_231" x1="177.374" y1="284.834" x2="178.037" y2="323.859" gradientUnits="userSpaceOnUse">
            <stop stop-color="#37474F"/>
            <stop offset="0.9964" stop-color="#2D3C42"/>
        </linearGradient>
        <linearGradient id="paint39_linear_115_231" x1="213.587" y1="282.922" x2="193.875" y2="317.771" gradientUnits="userSpaceOnUse">
            <stop stop-color="#FCB148"/>
            <stop offset="0.0521" stop-color="#FDBA46"/>
            <stop offset="0.1424" stop-color="#FFC244"/>
            <stop offset="0.3183" stop-color="#FFC444"/>
            <stop offset="0.4849" stop-color="#FDB946"/>
            <stop offset="0.7754" stop-color="#F99C4D"/>
            <stop offset="0.8658" stop-color="#F8924F"/>
            <stop offset="1" stop-color="#F8924F"/>
        </linearGradient>
        <linearGradient id="paint40_linear_115_231" x1="226.545" y1="311.969" x2="155.102" y2="311.969" gradientUnits="userSpaceOnUse">
            <stop stop-color="#CFD8DC"/>
            <stop offset="0.9964" stop-color="#91A5AF"/>
        </linearGradient>
        <linearGradient id="paint41_linear_115_231" x1="207.791" y1="315.258" x2="155.102" y2="315.258" gradientUnits="userSpaceOnUse">
            <stop stop-color="#899297"/>
            <stop offset="0.9964" stop-color="#3F4C53"/>
        </linearGradient>
        <linearGradient id="paint42_linear_115_231" x1="274.2" y1="258.057" x2="241.948" y2="258.057" gradientUnits="userSpaceOnUse">
            <stop stop-color="#465B65"/>
            <stop offset="0.9964" stop-color="#2D3A42"/>
        </linearGradient>
        <clipPath id="clip0_115_231">
            <rect width="457" height="342" fill="white"/>
        </clipPath>
    </defs>
</svg>
