<svg width="257" height="262" viewBox="0 0 257 262" fill="none" xmlns="http://www.w3.org/2000/svg">
	<g clip-path="url(#clip0_76_276)">
		<path d="M62.6683 14.8769C53.8938 27.1464 63.8183 47.2919 50.8938 56.453C38.3128 65.3707 23.1306 50.3772 11.2816 58.0428C-6.29587 69.4142 -3.66504 122.321 21.5101 155.44C29.081 165.4 35.4536 169.311 38.1761 180.514C44.0223 204.57 22.4373 218.617 26.3914 230.525C35.2944 257.34 176.308 281.243 233.829 201.543C260.694 164.32 265.225 110.21 242.008 68.8327C200.056 -5.93551 82.3567 -12.6534 62.6683 14.8769Z" fill="white" fill-opacity="0.05"/>
		<path d="M94.9245 119.749L145.918 113.528V38.4802L94.9245 28.8414V119.749Z" fill="url(#paint0_linear_76_276)"/>
		<path d="M32.7237 115.795L94.9243 119.749V28.8414L32.7237 37.4102V115.795Z" fill="url(#paint1_linear_76_276)"/>
		<path d="M71.4775 32.0715V44.8174L50.7702 46.7479V34.9242L71.4775 32.0715Z" fill="white"/>
		<path d="M20.4901 219L104.085 224.867V102.692L20.4901 108.559V219Z" fill="url(#paint2_linear_76_276)"/>
		<path d="M104.085 224.867L172.618 216.507V110.492L104.085 102.692V224.867Z" fill="url(#paint3_linear_76_276)"/>
		<path d="M74.4922 104.769V123.871L46.483 125.29V106.735L74.4922 104.769Z" fill="white"/>
		<path d="M116.719 242.793L80.9214 241.331L90.8322 218.161L113.895 219.52L120.066 229.59L116.719 242.793Z" fill="url(#paint4_linear_76_276)"/>
		<path d="M150.3 205.961C150.538 205.961 150.774 205.978 151.008 206.001L154.728 205.961L154.706 207.416C158.31 209.92 160.812 215.396 160.812 221.752C160.812 228.359 158.109 234.016 154.275 236.371L154.257 237.543H150.3C144.495 237.543 139.788 230.473 139.788 221.752C139.788 213.031 144.495 205.961 150.3 205.961Z" fill="url(#paint5_linear_76_276)"/>
		<path d="M154.728 237.543C148.923 237.543 144.217 230.473 144.217 221.752C144.217 213.031 148.923 205.961 154.728 205.961C160.534 205.961 165.24 213.031 165.24 221.752C165.24 230.473 160.534 237.543 154.728 237.543Z" fill="url(#paint6_linear_76_276)"/>
		<path d="M47.5836 217.953C47.8757 217.953 48.1644 217.971 48.4516 217.997L53.0086 217.953L52.9819 219.582C57.397 222.388 60.4614 228.522 60.4614 235.643C60.4614 243.045 57.1507 249.382 52.4533 252.021L52.4319 253.334H47.5836C40.4715 253.334 34.7057 245.414 34.7057 235.643C34.7058 225.873 40.4716 217.953 47.5836 217.953Z" fill="url(#paint7_linear_76_276)"/>
		<path d="M53.0089 253.334C45.8967 253.334 40.1312 245.413 40.1312 235.643C40.1312 225.873 45.8967 217.953 53.0089 217.953C60.1211 217.953 65.8867 225.873 65.8867 235.643C65.8867 245.413 60.1211 253.334 53.0089 253.334Z" fill="url(#paint8_linear_76_276)"/>
		<path d="M96.5543 226.167C96.8418 226.167 97.126 226.185 97.4087 226.212L101.895 226.167L101.869 227.838C106.215 230.714 109.232 237.002 109.232 244.303C109.232 251.892 105.973 258.388 101.348 261.093L101.327 262.439H96.5543C89.5529 262.439 83.8766 254.319 83.8766 244.303C83.8766 234.286 89.5529 226.167 96.5543 226.167Z" fill="url(#paint9_linear_76_276)"/>
		<path d="M101.895 262.439C94.8935 262.439 89.2175 254.319 89.2175 244.303C89.2175 234.287 94.8935 226.167 101.895 226.167C108.897 226.167 114.573 234.287 114.573 244.303C114.573 254.319 108.897 262.439 101.895 262.439Z" fill="url(#paint10_linear_76_276)"/>
		<path d="M103.677 254.492C99.7433 254.492 96.5545 249.93 96.5545 244.303C96.5545 238.676 99.7433 234.114 103.677 234.114C107.611 234.114 110.799 238.676 110.799 244.303C110.799 249.93 107.611 254.492 103.677 254.492Z" fill="#D8DEE8"/>
		<path d="M102.599 253.762C99.2605 253.762 96.5542 249.527 96.5542 244.303C96.5542 239.079 99.2605 234.844 102.599 234.844C105.937 234.844 108.644 239.079 108.644 244.303C108.644 249.527 105.937 253.762 102.599 253.762Z" fill="url(#paint11_linear_76_276)"/>
		<path d="M222.985 205.961V224.84C222.985 229.768 218.663 233.584 213.761 232.983L167.76 227.346V205.962L222.985 205.961Z" fill="url(#paint12_linear_76_276)"/>
		<path d="M202.276 203.341L189.647 222.926C187.841 225.725 184.879 227.576 181.566 227.973L139.789 232.982L136.592 211.899L202.276 203.341Z" fill="url(#paint13_linear_76_276)"/>
		<path d="M199.364 212.881C199.602 212.881 199.838 212.897 200.072 212.921L203.792 212.881L203.77 214.336C207.374 216.84 209.875 222.315 209.875 228.672C209.875 235.279 207.173 240.935 203.339 243.291L203.321 244.462H199.364C193.559 244.462 188.852 237.393 188.852 228.672C188.852 219.951 193.559 212.881 199.364 212.881Z" fill="url(#paint14_linear_76_276)"/>
		<path d="M203.792 244.462C197.987 244.462 193.281 237.393 193.281 228.672C193.281 219.951 197.987 212.881 203.792 212.881C209.598 212.881 214.304 219.951 214.304 228.672C214.304 237.393 209.598 244.462 203.792 244.462Z" fill="url(#paint15_linear_76_276)"/>
		<path d="M205.269 237.543C202.008 237.543 199.364 233.571 199.364 228.672C199.364 223.772 202.008 219.8 205.269 219.8C208.531 219.8 211.175 223.772 211.175 228.672C211.175 233.571 208.531 237.543 205.269 237.543Z" fill="#D8DEE8"/>
		<path d="M204.376 236.908C201.608 236.908 199.364 233.22 199.364 228.672C199.364 224.123 201.608 220.436 204.376 220.436C207.144 220.436 209.388 224.123 209.388 228.672C209.388 233.22 207.144 236.908 204.376 236.908Z" fill="url(#paint16_linear_76_276)"/>
		<path d="M153.745 218.161L239.557 206.302C240.969 206.107 242.021 204.902 242.021 203.48V128.035C242.021 126.496 240.796 125.235 239.254 125.187L153.745 122.559V218.161H153.745Z" fill="url(#paint17_linear_76_276)"/>
		<path d="M86.3868 212.881L153.745 218.161V122.559L89.7323 125.931C87.8568 126.03 86.3868 127.576 86.3868 129.45V212.881Z" fill="url(#paint18_linear_76_276)"/>
		<path opacity="0.3" d="M184.704 159.162C197.178 143.473 221.973 155.05 234.491 137.453C237.312 133.486 239.276 129.44 240.64 125.608C241.465 126.109 242.021 127.005 242.021 128.035V203.48C242.021 204.903 240.97 206.107 239.557 206.302L161.901 217.034C166.804 211.688 171.727 204.856 175.291 196.317C183.117 177.568 176.56 169.406 184.704 159.162Z" fill="url(#paint19_linear_76_276)"/>
		<path d="M140.725 162.118C143.049 172.527 148.47 202.553 142.42 234.822C141.97 237.224 140.038 239.077 137.62 239.462L116.719 242.792C116.719 242.792 116.51 223.047 106.469 221.752C96.4278 220.457 87.0144 229.851 86.3869 246.132C86.3869 246.132 64.6316 249.055 31.7893 241.54C31.7893 241.54 27.3964 240.601 25.5138 235.643L26.997 212.934C27.1187 211.07 27.9847 209.333 29.4009 208.112L48.7334 191.443C48.7334 191.443 66.305 166.603 72.1622 161.802C72.1622 161.802 75.3 156.792 100.611 156.166C118.043 155.734 130.046 156.887 135.83 157.647C138.244 157.964 140.196 159.747 140.725 162.118Z" fill="url(#paint20_linear_76_276)"/>
		<path opacity="0.6" d="M28.1089 209.598L29.0699 210.647C28.6513 222.336 26.1129 226.468 47.5837 228.672C69.0543 230.875 68.3967 212.881 68.3967 212.881L96.5541 200.627L120.066 163.68C124.732 159.929 132.887 158.904 138.416 158.666C139.561 159.476 140.405 160.686 140.725 162.118C143.049 172.527 148.47 202.553 142.42 234.822C141.97 237.224 140.038 239.077 137.62 239.462L116.719 242.793C116.719 242.793 116.509 223.047 106.468 221.752C96.4276 220.457 87.0141 229.851 86.3865 246.132C86.3865 246.132 64.6313 249.055 31.7891 241.54C31.7891 241.54 27.3961 240.601 25.5135 235.643L26.9969 212.933C27.0754 211.734 27.4658 210.589 28.1089 209.598Z" fill="url(#paint21_linear_76_276)"/>
		<path d="M96.8422 195.237C96.0806 196.485 94.6573 197.173 93.2037 196.995L48.6187 191.541L48.7334 191.443C48.7334 191.443 63.3155 170.829 70.3396 163.53L111.452 165.998C112.868 166.083 113.684 167.641 112.947 168.849L96.8422 195.237Z" fill="url(#paint22_linear_76_276)"/>
		<path opacity="0.3" d="M70.2939 181.383C82.4335 176.621 92.5207 182.265 100.869 175.605C104.081 173.043 105.995 169.486 107.124 165.738L111.452 165.998C112.868 166.083 113.684 167.641 112.947 168.85L96.8422 195.237C96.0805 196.485 94.6571 197.173 93.2037 196.995L56.2067 192.47C61.0659 186.169 66.0671 183.041 70.2939 181.383Z" fill="white"/>
		<path d="M30.8914 212.61C30.9374 212.205 31.2778 211.898 31.6866 211.902C42.7964 211.999 56.7669 214.331 61.392 215.16C62.2631 215.316 62.8377 216.165 62.6358 217.025C61.7315 220.877 60.2316 223.481 59.1272 224.993C58.3765 226.021 57.2215 226.669 55.9505 226.769C52.4548 227.043 44.7007 227.508 40.9413 226.615C37.5973 225.821 34.397 224.238 32.677 223.297C31.6759 222.75 30.9684 221.778 30.7934 220.653C30.3708 217.932 30.7159 214.161 30.8914 212.61Z" fill="url(#paint23_linear_76_276)"/>
		<path d="M85.2549 213.679C85.5674 213.047 85.2671 212.285 84.6042 212.04C83.623 211.678 82.2777 211.26 81.497 211.351C80.4727 211.471 71.8116 213.716 67.8501 214.751C66.627 215.07 65.7823 216.203 65.8649 217.462C66.0415 220.152 67.0604 224.415 71.6915 224.893C78.1203 225.557 82.1825 219.9 85.2549 213.679Z" fill="url(#paint24_linear_76_276)"/>
		<path d="M43.6085 229.59C60.4619 231.938 63.881 226.167 63.881 226.167C67.8697 226.759 73.539 225.979 76.7511 225.421C77.9758 225.208 79.1634 225.788 79.8489 226.823C80.3614 227.597 81.2933 228.38 82.9877 228.672C85.7536 229.147 90.4629 228.097 92.77 227.505C89.413 232.103 87.0629 238.063 86.7527 246.108C86.7527 246.108 64.6317 249.055 31.7894 241.54C31.7894 241.54 27.3964 240.601 25.5138 235.643L26.4812 220.833C28.2025 223.461 32.7038 228.07 43.6085 229.59Z" fill="url(#paint25_linear_76_276)"/>
		<path opacity="0.6" d="M71.0185 232.511C72.8833 232.331 74.474 233.821 74.4326 235.69C74.3444 239.685 74.7535 243.866 75.1147 246.69C65.5723 246.712 50.4807 245.817 31.7891 241.54C31.7891 241.54 27.3961 240.601 25.5135 235.643L26.0773 227.012C39.5426 234.63 62.2107 233.363 71.0185 232.511Z" fill="url(#paint26_linear_76_276)"/>
		<path d="M133.536 168.155L127.481 169.617C125.501 170.095 123.769 171.287 122.617 172.963L107.627 194.782C106.604 196.271 107.926 198.244 109.696 197.87L135.669 192.388C136.715 192.167 137.48 191.272 137.526 190.206C137.689 186.467 137.862 177.605 136.394 170.005C136.139 168.686 134.844 167.839 133.536 168.155Z" fill="url(#paint27_linear_76_276)"/>
	</g>
	<defs>
		<linearGradient id="paint0_linear_76_276" x1="103.417" y1="37.3639" x2="166.088" y2="124.324" gradientUnits="userSpaceOnUse">
			<stop stop-color="#D9B79F"/>
			<stop offset="0.9964" stop-color="#C09779"/>
		</linearGradient>
		<linearGradient id="paint1_linear_76_276" x1="43.0831" y1="37.3639" x2="100.948" y2="135.301" gradientUnits="userSpaceOnUse">
			<stop stop-color="#D9B79F"/>
			<stop offset="0.9964" stop-color="#C09779"/>
		</linearGradient>
		<linearGradient id="paint2_linear_76_276" x1="34.4127" y1="114.146" x2="112.181" y2="245.769" gradientUnits="userSpaceOnUse">
			<stop stop-color="#D9B79F"/>
			<stop offset="0.9964" stop-color="#C09779"/>
		</linearGradient>
		<linearGradient id="paint3_linear_76_276" x1="115.499" y1="114.146" x2="199.725" y2="231.016" gradientUnits="userSpaceOnUse">
			<stop stop-color="#D9B79F"/>
			<stop offset="0.9964" stop-color="#C09779"/>
		</linearGradient>
		<linearGradient id="paint4_linear_76_276" x1="120.066" y1="230.477" x2="80.9213" y2="230.477" gradientUnits="userSpaceOnUse">
			<stop stop-color="#A2B1BA"/>
			<stop offset="0.9964" stop-color="#58717D"/>
		</linearGradient>
		<linearGradient id="paint5_linear_76_276" x1="160.812" y1="221.752" x2="139.788" y2="221.752" gradientUnits="userSpaceOnUse">
			<stop stop-color="#263238"/>
			<stop offset="1" stop-color="#35444C"/>
		</linearGradient>
		<linearGradient id="paint6_linear_76_276" x1="165.24" y1="221.752" x2="144.217" y2="221.752" gradientUnits="userSpaceOnUse">
			<stop stop-color="#263238"/>
			<stop offset="1" stop-color="#35444C"/>
		</linearGradient>
		<linearGradient id="paint7_linear_76_276" x1="60.4615" y1="235.643" x2="34.7057" y2="235.643" gradientUnits="userSpaceOnUse">
			<stop stop-color="#263238"/>
			<stop offset="1" stop-color="#37464E"/>
		</linearGradient>
		<linearGradient id="paint8_linear_76_276" x1="65.8867" y1="235.643" x2="40.1311" y2="235.643" gradientUnits="userSpaceOnUse">
			<stop stop-color="#263238"/>
			<stop offset="1" stop-color="#36454D"/>
		</linearGradient>
		<linearGradient id="paint9_linear_76_276" x1="109.232" y1="244.303" x2="83.8766" y2="244.303" gradientUnits="userSpaceOnUse">
			<stop stop-color="#263238"/>
			<stop offset="1" stop-color="#34444B"/>
		</linearGradient>
		<linearGradient id="paint10_linear_76_276" x1="114.573" y1="244.303" x2="89.2175" y2="244.303" gradientUnits="userSpaceOnUse">
			<stop stop-color="#263238"/>
			<stop offset="1" stop-color="#36454D"/>
		</linearGradient>
		<linearGradient id="paint11_linear_76_276" x1="93.982" y1="243.373" x2="105.591" y2="244.631" gradientUnits="userSpaceOnUse">
			<stop offset="0.0054" stop-color="#D8DEE8"/>
			<stop offset="1" stop-color="#F4F7FA"/>
		</linearGradient>
		<linearGradient id="paint12_linear_76_276" x1="222.985" y1="219.503" x2="167.76" y2="219.503" gradientUnits="userSpaceOnUse">
			<stop stop-color="#3E484C"/>
			<stop offset="0.9964" stop-color="#222321"/>
		</linearGradient>
		<linearGradient id="paint13_linear_76_276" x1="202.276" y1="218.161" x2="136.592" y2="218.161" gradientUnits="userSpaceOnUse">
			<stop stop-color="#3C4B53"/>
			<stop offset="0.9964" stop-color="#21211F"/>
		</linearGradient>
		<linearGradient id="paint14_linear_76_276" x1="209.876" y1="228.672" x2="188.852" y2="228.672" gradientUnits="userSpaceOnUse">
			<stop stop-color="#263238"/>
			<stop offset="1" stop-color="#35444C"/>
		</linearGradient>
		<linearGradient id="paint15_linear_76_276" x1="214.304" y1="228.672" x2="193.281" y2="228.672" gradientUnits="userSpaceOnUse">
			<stop stop-color="#263238"/>
			<stop offset="1" stop-color="#334249"/>
		</linearGradient>
		<linearGradient id="paint16_linear_76_276" x1="193.889" y1="230.08" x2="210.205" y2="227.879" gradientUnits="userSpaceOnUse">
			<stop offset="0.0054" stop-color="#D8DEE8"/>
			<stop offset="1" stop-color="#F4F7FA"/>
		</linearGradient>
		<linearGradient id="paint17_linear_76_276" x1="153.745" y1="170.36" x2="242.021" y2="170.36" gradientUnits="userSpaceOnUse">
			<stop stop-color="#FFC444"/>
			<stop offset="0.9964" stop-color="#F36F56"/>
		</linearGradient>
		<linearGradient id="paint18_linear_76_276" x1="86.3868" y1="170.36" x2="153.745" y2="170.36" gradientUnits="userSpaceOnUse">
			<stop stop-color="#FFC444"/>
			<stop offset="0.9964" stop-color="#F36F56"/>
		</linearGradient>
		<linearGradient id="paint19_linear_76_276" x1="161.901" y1="171.321" x2="242.021" y2="171.321" gradientUnits="userSpaceOnUse">
			<stop stop-color="#FFC444"/>
			<stop offset="0.9964" stop-color="#EBA50A"/>
		</linearGradient>
		<linearGradient id="paint20_linear_76_276" x1="145.186" y1="201.382" x2="25.5137" y2="201.382" gradientUnits="userSpaceOnUse">
			<stop offset="0.0054" stop-color="#D8DEE8"/>
			<stop offset="1" stop-color="#F4F7FA"/>
		</linearGradient>
		<linearGradient id="paint21_linear_76_276" x1="86.1253" y1="203.516" x2="141.181" y2="290.875" gradientUnits="userSpaceOnUse">
			<stop offset="0.0054" stop-color="#D8DEE8"/>
			<stop offset="1" stop-color="#F4F7FA"/>
		</linearGradient>
		<linearGradient id="paint22_linear_76_276" x1="113.224" y1="180.277" x2="48.6187" y2="180.277" gradientUnits="userSpaceOnUse">
			<stop stop-color="#3C4F58"/>
			<stop offset="0.9964" stop-color="#2C3A41"/>
		</linearGradient>
		<linearGradient id="paint23_linear_76_276" x1="46.4797" y1="208.21" x2="47.1046" y2="244.948" gradientUnits="userSpaceOnUse">
			<stop stop-color="#37474F"/>
			<stop offset="0.9964" stop-color="#2D3C42"/>
		</linearGradient>
		<linearGradient id="paint24_linear_76_276" x1="80.5713" y1="206.411" x2="62.0139" y2="239.217" gradientUnits="userSpaceOnUse">
			<stop stop-color="#FCB148"/>
			<stop offset="0.0521" stop-color="#FDBA46"/>
			<stop offset="0.1424" stop-color="#FFC244"/>
			<stop offset="0.3183" stop-color="#FFC444"/>
			<stop offset="0.4849" stop-color="#FDB946"/>
			<stop offset="0.7754" stop-color="#F99C4D"/>
			<stop offset="0.8658" stop-color="#F8924F"/>
			<stop offset="1" stop-color="#F8924F"/>
		</linearGradient>
		<linearGradient id="paint25_linear_76_276" x1="92.77" y1="233.755" x2="25.5138" y2="233.755" gradientUnits="userSpaceOnUse">
			<stop stop-color="#CFD8DC"/>
			<stop offset="0.9964" stop-color="#91A5AF"/>
		</linearGradient>
		<linearGradient id="paint26_linear_76_276" x1="75.1148" y1="236.851" x2="25.5135" y2="236.851" gradientUnits="userSpaceOnUse">
			<stop stop-color="#899297"/>
			<stop offset="0.9964" stop-color="#3F4C53"/>
		</linearGradient>
		<linearGradient id="paint27_linear_76_276" x1="137.631" y1="183.003" x2="107.27" y2="183.003" gradientUnits="userSpaceOnUse">
			<stop stop-color="#465B65"/>
			<stop offset="0.9964" stop-color="#2D3A42"/>
		</linearGradient>
		<clipPath id="clip0_76_276">
			<rect width="257" height="262" fill="white" transform="matrix(-1 0 0 1 257 0)"/>
		</clipPath>
	</defs>
</svg>
